<svg width="75" height="75" viewBox="0 0 75 75" fill="none" xmlns="http://www.w3.org/2000/svg">
<path d="M37.5 0C30.0832 0 22.833 2.19934 16.6661 6.31989C10.4993 10.4404 5.69282 16.2971 2.85453 23.1494C0.016248 30.0016 -0.726377 37.5416 0.720569 44.8159C2.16752 52.0902 5.73905 58.772 10.9835 64.0165C16.228 69.261 22.9098 72.8325 30.1841 74.2795C37.4584 75.7264 44.9984 74.9838 51.8507 72.1455C58.7029 69.3072 64.5596 64.5007 68.6801 58.3339C72.8007 52.1671 75 44.9168 75 37.5C74.9892 27.5577 71.0348 18.0258 64.0045 10.9955C56.9743 3.96523 47.4423 0.0108566 37.5 0ZM37.5 71.4844C30.7785 71.4844 24.208 69.4912 18.6193 65.757C13.0306 62.0227 8.67475 56.7151 6.10255 50.5053C3.53035 44.2954 2.85735 37.4623 4.16864 30.87C5.47994 24.2777 8.71664 18.2222 13.4694 13.4694C18.2222 8.71662 24.2777 5.47992 30.87 4.16863C37.4623 2.85733 44.2955 3.53034 50.5053 6.10253C56.7151 8.67473 62.0228 13.0306 65.757 18.6193C69.4913 24.208 71.4844 30.7785 71.4844 37.5C71.4736 46.5099 67.8896 55.1476 61.5186 61.5186C55.1477 67.8896 46.5099 71.4735 37.5 71.4844Z" fill="#565CFE"/>
<path d="M52.7344 35.7422H39.2578V22.2656C39.2578 21.7994 39.0726 21.3523 38.743 21.0227C38.4133 20.693 37.9662 20.5078 37.5 20.5078C37.0338 20.5078 36.5867 20.693 36.257 21.0227C35.9274 21.3523 35.7422 21.7994 35.7422 22.2656V35.7422H22.2656C21.7994 35.7422 21.3523 35.9274 21.0227 36.257C20.693 36.5867 20.5078 37.0338 20.5078 37.5C20.5078 37.9662 20.693 38.4133 21.0227 38.743C21.3523 39.0726 21.7994 39.2578 22.2656 39.2578H35.7422V52.7344C35.7422 53.2006 35.9274 53.6477 36.257 53.9773C36.5867 54.307 37.0338 54.4922 37.5 54.4922C37.9662 54.4922 38.4133 54.307 38.743 53.9773C39.0726 53.6477 39.2578 53.2006 39.2578 52.7344V39.2578H52.7344C53.2006 39.2578 53.6477 39.0726 53.9773 38.743C54.307 38.4133 54.4922 37.9662 54.4922 37.5C54.4922 37.0338 54.307 36.5867 53.9773 36.257C53.6477 35.9274 53.2006 35.7422 52.7344 35.7422Z" fill="#565CFE"/>
</svg>
