<svg width="28" height="28" viewBox="0 0 28 28" fill="none" xmlns="http://www.w3.org/2000/svg">
<path d="M12.3222 0.838257L10.6447 4.83063C10.3093 4.93128 10.0073 5.09903 9.70537 5.26677L5.71299 3.58931L3.29744 6.00486L4.9749 9.99724C4.80716 10.3327 4.67296 10.6011 4.53876 10.9366L0.546387 12.6141V15.969L4.53876 17.6465C4.67296 17.982 4.80716 18.2504 4.9749 18.5859L3.29744 22.5783L5.71299 24.9938L9.70537 23.3163C10.0073 23.4505 10.3093 23.6183 10.6447 23.7525L12.3222 27.7449H15.6772L17.3546 23.7525C17.6566 23.6183 17.9921 23.4841 18.294 23.3163L22.2864 24.9938L24.7019 22.5783L23.0245 18.5859C23.1587 18.2839 23.3264 17.9484 23.4606 17.6465L27.453 15.969V12.6141L23.4606 10.9366C23.36 10.6347 23.1922 10.2992 23.0245 9.99724L24.7019 6.00486L22.2864 3.58931L18.294 5.26677C17.9921 5.13258 17.6566 4.96483 17.3546 4.83063L15.6772 0.838257L12.3222 0.838257ZM13.9997 9.2256C16.7843 9.2256 19.0321 11.4734 19.0321 14.258C19.0321 17.0426 16.7843 19.2904 13.9997 19.2904C11.2151 19.2904 8.96728 17.0426 8.96728 14.258C8.96728 11.4734 11.2151 9.2256 13.9997 9.2256Z" fill="#565CFE"/>
</svg>
