<svg width="27" height="31" viewBox="0 0 27 31" fill="none" xmlns="http://www.w3.org/2000/svg">
<path d="M11.6247 0C9.51057 0 7.78086 1.72971 7.78086 3.8438H3.93706C1.82297 3.8438 0.0932617 5.57351 0.0932617 7.6876H26.9999C26.9999 5.57351 25.2702 3.8438 23.1561 3.8438H19.3123C19.3123 1.72971 17.5826 0 15.4685 0H11.6247ZM3.93706 11.5314V30.0201C3.93706 30.4429 4.24457 30.7504 4.66738 30.7504H22.4642C22.887 30.7504 23.1945 30.4429 23.1945 30.0201V11.5314H19.3507V24.9847C19.3507 26.061 18.5051 26.9066 17.4288 26.9066C16.3525 26.9066 15.5069 26.061 15.5069 24.9847V11.5314H11.6631V24.9847C11.6631 26.061 10.8175 26.9066 9.7412 26.9066C8.66494 26.9066 7.8193 26.061 7.8193 24.9847V11.5314H3.9755H3.93706Z" fill="#565CFE"/>
</svg>
