<?xml version="1.0" standalone="no"?>
<!DOCTYPE svg PUBLIC "-//W3C//DTD SVG 20010904//EN"
 "http://www.w3.org/TR/2001/REC-SVG-20010904/DTD/svg10.dtd">
<svg version="1.0" xmlns="http://www.w3.org/2000/svg"
 width="16.000000pt" height="16.000000pt" viewBox="0 0 16.000000 16.000000"
 preserveAspectRatio="xMidYMid meet">

<g transform="translate(0.000000,16.000000) scale(0.100000,-0.100000)"
fill="#000000" stroke="none">
<path d="M97 130 c-8 -11 -17 -17 -20 -13 -4 3 -7 -1 -7 -10 0 -9 -5 -17 -11
-17 -5 0 -7 5 -3 12 4 7 3 8 -4 4 -15 -9 -16 -26 -1 -26 14 0 79 50 79 61 0
16 -18 10 -33 -11z"/>
<path d="M10 65 c0 -6 30 -10 70 -10 40 0 70 4 70 10 0 6 -30 10 -70 10 -40 0
-70 -4 -70 -10z"/>
</g>
</svg>
