<?xml version="1.0" standalone="no"?>
<!DOCTYPE svg PUBLIC "-//W3C//DTD SVG 20010904//EN"
 "http://www.w3.org/TR/2001/REC-SVG-20010904/DTD/svg10.dtd">
<svg version="1.0" xmlns="http://www.w3.org/2000/svg"
 width="16.000000pt" height="16.000000pt" viewBox="0 0 16.000000 16.000000"
 preserveAspectRatio="xMidYMid meet">
<metadata>
Created by potrace 1.16, written by Peter Selinger 2001-2019
</metadata>
<g transform="translate(0.000000,16.000000) scale(0.100000,-0.100000)"
fill="#000000" stroke="none">
<path d="M4 147 c-3 -8 -4 -34 -2 -58 2 -37 7 -45 26 -47 24 -4 31 -22 7 -22
-8 0 -15 -4 -15 -10 0 -6 27 -10 60 -10 33 0 60 4 60 10 0 6 -7 10 -15 10 -24
0 -17 18 8 22 20 3 22 9 22 58 l0 55 -73 3 c-55 2 -74 0 -78 -11z"/>
</g>
</svg>
