<svg width="24" height="24" viewBox="0 0 24 24" fill="none" xmlns="http://www.w3.org/2000/svg">
<path d="M0.667155 0.649C0.313154 1.003 0.0226923 1.32069 0.0226923 1.35246C0.0226923 1.38423 0.317693 1.99239 0.676232 2.714L1.33431 4.01654L2.13762 4.49308C2.57785 4.75631 2.95908 4.9787 2.98177 4.98777C3.009 4.99685 3.09523 4.93331 3.18147 4.85162L3.34031 4.70185L6.41285 7.77439L9.4854 10.8469L4.7427 15.5896L0 20.3323L1.46592 21.7937L2.92731 23.2596L7.67001 18.5169L12.4127 13.7742L13.1616 14.5231C13.8332 15.1948 13.9013 15.2765 13.8423 15.34C13.7879 15.399 13.7742 15.5806 13.7742 16.2749V17.1327L16.8286 20.1871C18.5033 21.8618 19.9012 23.237 19.9239 23.237C19.9829 23.237 23.2596 19.9602 23.2596 19.9012C23.2596 19.8739 21.8845 18.4806 20.2053 16.8014L17.1554 13.7516H16.2976C15.6078 13.7516 15.4217 13.7652 15.3627 13.8196C15.2992 13.8786 14.7636 13.3567 10.0073 8.60039L4.72454 3.31762L4.87431 3.15877C4.95601 3.07254 5.01954 2.98631 5.01047 2.95908C5.00139 2.93639 4.77901 2.55516 4.51577 2.11493L4.03924 1.31162L2.7367 0.653538C2.01508 0.295 1.40239 0 1.37062 0C1.33885 0 1.02569 0.290461 0.667155 0.649Z" fill="#565CFE"/>
<path d="M16.4202 0.0680828C15.6169 0.217853 14.6638 0.621776 14.0239 1.08924C12.8257 1.96516 11.9679 3.34032 11.7092 4.79716C11.6321 5.25555 11.6185 6.29486 11.6865 6.69878C11.7592 7.10271 11.8998 7.62463 12.0224 7.92417L12.1313 8.19194L12.036 8.29632L11.9407 8.40071L13.4021 9.85756L14.8589 11.3189L14.9633 11.2236L15.0677 11.1283L15.3355 11.2372C15.635 11.3598 16.1569 11.5005 16.5609 11.5731C16.9648 11.6412 18.0041 11.6276 18.4625 11.5504C20.8588 11.1283 22.7695 9.21763 23.1916 6.82132C23.3141 6.09971 23.2732 5.01047 23.0917 4.34332L23.0191 4.07555L21.1992 5.89547L19.3792 7.7154L17.9405 7.23432L16.5019 6.75778L16.0253 5.31909L15.5442 3.88039L17.3642 2.06047L19.1841 0.240544L18.9163 0.167929C18.2719 -0.00453281 17.0919 -0.0544558 16.4202 0.0680828Z" fill="#565CFE"/>
</svg>
