<svg width="44" height="50" viewBox="0 0 44 50" fill="none" xmlns="http://www.w3.org/2000/svg">
<path d="M12.3866 50C9.00913 43.0661 10.8078 39.0928 13.4036 35.3495C16.2463 31.25 16.9789 27.192 16.9789 27.192C16.9789 27.192 19.2136 30.0582 18.3196 34.5411C22.2675 30.2051 23.0126 23.2969 22.4164 20.6512C31.3401 26.804 35.1539 40.1265 30.0142 50C57.3508 34.7397 36.814 11.9057 33.2386 9.33357C34.4304 11.9056 34.6564 16.2598 32.2488 18.3729C28.1733 3.12497 18.0962 0 18.0962 0C19.2881 7.86347 13.7761 16.4621 8.46087 22.8872C8.27415 19.7516 8.07575 17.588 6.40455 14.5874C6.02941 20.2835 1.61736 24.9266 0.422588 30.6338C-1.19579 38.3625 1.63485 44.0215 12.3866 50Z" fill="white"/>
</svg>
