<svg width="25" height="32" viewBox="0 0 25 32" fill="none" xmlns="http://www.w3.org/2000/svg">
<path d="M21.6774 2.59369H18.9829C18.8324 2.30361 18.6059 2.05989 18.3275 1.88861C18.0492 1.71732 17.7295 1.62491 17.4027 1.62125H15.9846C15.9846 1.29349 15.8544 0.979158 15.6226 0.747398C15.3909 0.515638 15.0765 0.385437 14.7488 0.385437H10.2512C9.92347 0.385437 9.60914 0.515638 9.37738 0.747398C9.14562 0.979158 9.01541 1.29349 9.01541 1.62125H7.59727C7.27047 1.62491 6.95081 1.71732 6.67247 1.88861C6.39414 2.05989 6.16759 2.30361 6.01705 2.59369H3.32257C2.44139 2.59369 1.5963 2.94374 0.973203 3.56683C0.350112 4.18992 6.25351e-05 5.03502 6.25351e-05 5.9162V27.8975C-0.0026272 28.3345 0.0814757 28.7678 0.247495 29.1721C0.413514 29.5764 0.658146 29.9438 0.967207 30.2528C1.27627 30.5619 1.64361 30.8065 2.04793 30.9725C2.45225 31.1386 2.8855 31.2227 3.32257 31.22H21.6774C22.1145 31.2227 22.5478 31.1386 22.9521 30.9725C23.3564 30.8065 23.7237 30.5619 24.0328 30.2528C24.3419 29.9438 24.5865 29.5764 24.7525 29.1721C24.9185 28.7678 25.0026 28.3345 24.9999 27.8975V5.9162C24.9999 5.03502 24.6499 4.18992 24.0268 3.56683C23.4037 2.94374 22.5586 2.59369 21.6774 2.59369ZM23.4805 27.8975C23.4805 28.1342 23.4339 28.3687 23.3432 28.5875C23.2526 28.8062 23.1198 29.005 22.9524 29.1724C22.785 29.3399 22.5862 29.4727 22.3674 29.5633C22.1487 29.6539 21.9142 29.7005 21.6774 29.7005H3.32257C2.84437 29.7005 2.38575 29.5106 2.04761 29.1724C1.70947 28.8343 1.5195 28.3757 1.5195 27.8975V5.9162C1.5195 5.438 1.70947 4.97938 2.04761 4.64124C2.38575 4.3031 2.84437 4.11313 3.32257 4.11313H5.93601C6.0751 4.43832 6.30675 4.71542 6.60214 4.90994C6.89752 5.10446 7.24359 5.20781 7.59727 5.20713H17.4027C17.7564 5.20781 18.1025 5.10446 18.3979 4.90994C18.6932 4.71542 18.9249 4.43832 19.064 4.11313H21.6774C22.1556 4.11313 22.6142 4.3031 22.9524 4.64124C23.2905 4.97938 23.4805 5.438 23.4805 5.9162V27.8975Z" fill="white"/>
<path d="M17.3419 14.344H15.1742C15.6039 13.1609 15.8366 11.9152 15.863 10.6568C15.7853 10.1774 15.5381 9.74187 15.1662 9.42951C14.7943 9.11715 14.3227 8.94877 13.8371 8.95502C13.5917 8.94614 13.347 8.98638 13.1174 9.07335C12.8878 9.16032 12.6779 9.29229 12.5 9.4615C12.2962 9.63985 12.1303 9.85723 12.0119 10.1008C11.8936 10.3444 11.8254 10.6092 11.8111 10.8796C11.6684 11.8747 11.3818 12.8438 10.9603 13.7564C10.4245 14.6325 9.73872 15.4074 8.93434 16.0457H6.42219C6.22148 16.0457 6.02867 16.124 5.88487 16.264C5.74106 16.404 5.65763 16.5947 5.65234 16.7953V24.0481C5.65763 24.2488 5.74106 24.4394 5.88487 24.5794C6.02867 24.7195 6.22148 24.7978 6.42219 24.7977H16.2074C16.9975 24.7977 17.9902 24.4533 18.2333 22.7718C18.3751 22.164 19.1652 17.8083 19.3071 16.694C19.3484 16.3954 19.3226 16.0913 19.2314 15.8039C19.1403 15.5165 18.9862 15.253 18.7803 15.0328C18.3968 14.6411 17.8875 14.3972 17.3419 14.344ZM8.44812 23.2985H7.13127V17.5652H8.44812V23.2985ZM16.8354 22.5287C16.6734 23.2985 16.41 23.2985 16.1871 23.2985H9.96756V17.2208C10.9387 16.4427 11.7446 15.4784 12.3379 14.3845C12.8585 13.2784 13.1938 12.0944 13.3306 10.8796C13.3935 10.6914 13.5232 10.5328 13.6953 10.4339C14.2828 10.4339 14.3435 10.7581 14.3638 10.8999C14.1947 12.2349 13.8752 13.5466 13.4116 14.8099C13.3715 14.9244 13.3598 15.0468 13.3774 15.1668C13.3951 15.2868 13.4416 15.4007 13.5129 15.4987C13.5869 15.5912 13.6789 15.6677 13.7834 15.7234C13.8879 15.7792 14.0027 15.813 14.1207 15.8229H17.3014C17.3014 15.8229 17.9294 16.066 17.8687 16.5725C17.7268 17.6057 16.957 21.8804 16.8152 22.5287H16.8354Z" fill="white"/>
</svg>
