<svg width="27" height="28" viewBox="0 0 27 28" fill="none" xmlns="http://www.w3.org/2000/svg">
<path d="M25.7538 16.3923H14.6631C14.333 16.3923 14.0163 16.5234 13.7829 16.7569C13.5495 16.9903 13.4183 17.307 13.4183 17.6371V25.8182H1.3753V20.7641C1.3753 18.1995 3.19 16.0699 5.46213 15.9199H16.3278C16.424 15.9299 16.5211 15.9197 16.613 15.8898C16.705 15.8599 16.7896 15.811 16.8614 15.7463C16.9332 15.6816 16.9906 15.6026 17.0299 15.5143C17.0692 15.426 17.0895 15.3304 17.0895 15.2337C17.0895 15.1371 17.0692 15.0415 17.0299 14.9532C16.9906 14.8649 16.9332 14.7858 16.8614 14.7211C16.7896 14.6565 16.705 14.6076 16.613 14.5777C16.5211 14.5478 16.424 14.5375 16.3278 14.5476H5.41713C3.89687 14.7096 2.49404 15.4403 1.48993 16.5932C0.485829 17.7461 -0.0453063 19.236 0.00303197 20.7641V27.2205H14.1007C14.1531 27.2247 14.2058 27.2247 14.2582 27.2205C14.3882 27.2658 14.5255 27.2861 14.6631 27.2805H25.7538C25.9224 27.2807 26.0893 27.2466 26.2444 27.1803C26.3995 27.1141 26.5395 27.017 26.6559 26.895C26.7723 26.7729 26.8627 26.6285 26.9216 26.4705C26.9805 26.3125 27.0067 26.1442 26.9986 25.9757V17.6371C26.9986 17.307 26.8674 16.9903 26.634 16.7569C26.4005 16.5234 26.0839 16.3923 25.7538 16.3923ZM21.4195 17.7646V19.6093H18.9974V17.7646H21.4195ZM25.6263 25.8482H14.9031L14.7906 25.7058V17.7646H17.6176V19.7967C17.6176 20.111 17.7424 20.4123 17.9646 20.6345C18.1868 20.8567 18.4882 20.9815 18.8024 20.9815H21.6069C21.9212 20.9815 22.2225 20.8567 22.4447 20.6345C22.6669 20.4123 22.7917 20.111 22.7917 19.7967V17.7646H25.6263V25.8482Z" fill="white"/>
<path d="M12.4359 13.7527C13.7949 13.7512 15.1231 13.3471 16.2526 12.5912C17.3821 11.8354 18.2623 10.7618 18.782 9.50609C19.3017 8.25034 19.4377 6.86874 19.1728 5.53576C18.9078 4.20278 18.2538 2.97821 17.2933 2.01669C16.3328 1.05517 15.109 0.399823 13.7763 0.133413C12.4436 -0.132997 11.0619 0.00147738 9.80554 0.519854C8.54923 1.03823 7.4747 1.91726 6.71765 3.04593C5.96059 4.17461 5.55497 5.50231 5.55201 6.86136C5.55102 7.76599 5.72835 8.66195 6.07386 9.498C6.41936 10.3341 6.92626 11.0938 7.56559 11.7338C8.20491 12.3739 8.96412 12.8816 9.79979 13.228C10.6355 13.5744 11.5312 13.7527 12.4359 13.7527ZM12.4359 1.37227C13.5251 1.37228 14.5899 1.69547 15.4953 2.30093C16.4008 2.90639 17.1062 3.7669 17.5224 4.77351C17.9385 5.78013 18.0467 6.88758 17.8331 7.95568C17.6195 9.02378 17.0938 10.0045 16.3225 10.7736C15.5512 11.5428 14.5691 12.0658 13.5004 12.2765C12.4318 12.4872 11.3246 12.376 10.3191 11.9572C9.31365 11.5383 8.45507 10.8305 7.85208 9.92334C7.24909 9.01623 6.92881 7.9506 6.93178 6.86136C6.93575 5.40419 7.51739 4.00805 8.54918 2.97907C9.58097 1.9501 10.9787 1.37227 12.4359 1.37227Z" fill="white"/>
</svg>
