<svg width="25" height="31" viewBox="0 0 25 31" fill="none" xmlns="http://www.w3.org/2000/svg">
<path d="M7.8125 2.60417C4.47917 5.83334 4.47917 8.75 7.8125 11.9792L10.3125 14.5833L6.875 16.0417C3.125 17.6042 0 21.25 0 24.1667C0 27.5 6.25 30.7292 12.5 30.7292C18.75 30.7292 25 27.5 25 24.1667C25 21.25 21.875 17.6042 18.125 16.0417L14.6875 14.5833L17.1875 11.9792C18.6458 10.625 19.7917 8.4375 19.7917 7.29167C19.7917 4.47917 15.3125 3.8147e-06 12.5 3.8147e-06C11.3542 3.8147e-06 9.16667 1.14584 7.8125 2.60417Z" fill="white"/>
</svg>
