<svg width="25" height="30" viewBox="0 0 25 30" fill="none" xmlns="http://www.w3.org/2000/svg">
<path d="M0.903908 1.76158C-0.301303 4.172 -0.301303 25.495 0.903908 27.9054C1.83099 29.4814 2.9435 29.6668 12.0289 29.6668C24.2665 29.6668 24.081 29.8523 24.081 16.9658V7.78764L20.0946 3.89388C16.1081 0.00012207 16.1081 0.00012207 8.96955 0.00012207C2.9435 0.00012207 1.73828 0.278246 0.903908 1.76158ZM13.8831 6.02617C13.8831 9.08555 14.0685 9.27097 17.1279 9.27097H20.3727V18.0783V26.8856H12.0289H3.68516V15.4824C3.68516 9.17826 3.96329 3.70846 4.33412 3.43034C4.61225 3.0595 6.92996 2.78138 9.43309 2.78138H13.8831V6.02617Z" fill="white"/>
</svg>
