<svg width="23" height="23" viewBox="0 0 23 23" fill="none" xmlns="http://www.w3.org/2000/svg">
<path d="M23.0044 17.3747C23.0025 18.1413 22.7273 18.8821 22.2281 19.4639L20.6756 21.2847C20.0427 22.0316 19.1998 22.5709 18.2564 22.8324C17.313 23.0939 16.3127 23.0655 15.3856 22.7509C11.8648 21.5698 8.66404 19.5923 6.03227 16.9722C3.4122 14.3404 1.43467 11.1396 0.253518 7.61886C-0.0566685 6.69134 -0.0828218 5.69232 0.178409 4.74984C0.43964 3.80736 0.976355 2.96435 1.71977 2.32886L3.5406 0.776361C3.86752 0.495012 4.24782 0.282488 4.65877 0.151498C5.06971 0.020508 5.50285 -0.0262557 5.93229 0.0140036C6.36172 0.054263 6.77862 0.180718 7.15806 0.385806C7.5375 0.590894 7.87167 0.870402 8.1406 1.20761L10.4502 4.0922C10.8206 4.55526 11.0388 5.12153 11.0748 5.71342C11.1108 6.30532 10.963 6.89387 10.6514 7.39845L9.59727 9.11386C9.48524 9.2979 9.43849 9.51432 9.46457 9.72818C9.49065 9.94205 9.58804 10.1409 9.74102 10.2926L12.7119 13.2634C12.8636 13.4164 13.0624 13.5138 13.2763 13.5399C13.4901 13.566 13.7066 13.5192 13.8906 13.4072L15.606 12.353C16.1087 12.0411 16.6959 11.8929 17.2864 11.929C17.8769 11.965 18.4417 12.1835 18.9027 12.5543L21.7969 14.8639C22.174 15.1646 22.4784 15.5466 22.6875 15.9813C22.8965 16.416 23.0048 16.8923 23.0044 17.3747Z" fill="white"/>
</svg>
