<svg width="22" height="22" viewBox="0 0 22 22" fill="none" xmlns="http://www.w3.org/2000/svg">
<path d="M9.93005 0.0151234C8.48098 0.18712 7.3157 0.522514 6.12463 1.1073C5.05395 1.63619 4.19827 2.24248 3.31249 3.10676C1.60542 4.77083 0.534742 6.81759 0.11765 9.20834C-0.00704708 9.94792 -0.0414464 11.5776 0.0574516 12.3301C0.242348 13.7146 0.582041 14.8283 1.18833 16.0194C1.69572 17.0213 2.28911 17.8426 3.11469 18.6896C4.89485 20.5171 7.08351 21.605 9.67206 21.9447C10.4202 22.0393 12.0499 22.0092 12.7938 21.8802C13.9204 21.6867 14.8793 21.3771 15.8854 20.8826C16.9518 20.358 17.8118 19.7517 18.6976 18.8874C20.4347 17.1976 21.5097 15.1164 21.9139 12.6526C22.0257 11.9732 22.0257 10.021 21.9139 9.34163C21.5011 6.83909 20.4089 4.74933 18.6073 3.02076C16.9991 1.4728 14.9524 0.458015 12.7035 0.0925236C12.2907 0.0280247 10.3084 -0.027874 9.93005 0.0151234ZM11.908 1.0901C12.6003 1.1417 13.5076 1.3395 14.2773 1.60179C14.8492 1.79959 15.8983 2.31558 16.4229 2.65527C18.8524 4.23764 20.4949 6.84769 20.8733 9.72433C20.955 10.3607 20.9593 11.6077 20.8776 12.2269C20.6454 13.9683 19.9918 15.5765 18.9427 16.974C18.56 17.4857 17.7731 18.3027 17.2614 18.7154C15.808 19.8936 13.9892 20.6633 12.123 20.8869C11.5425 20.9557 10.3471 20.9471 9.74086 20.8654C7.94349 20.6289 6.18483 19.8764 4.77876 18.7498C2.90399 17.2492 1.65272 15.1207 1.19263 12.6741C1.08513 12.085 1.03783 10.5585 1.11093 9.91782C1.36893 7.67327 2.388 5.55341 3.97467 3.96674C5.72474 2.21668 8.08109 1.1804 10.5965 1.0514C10.8717 1.0342 11.4479 1.0514 11.908 1.0901Z" fill="#565CFE"/>
<path d="M15.3178 7.13148C15.2189 7.16158 14.2815 8.05596 11.9251 10.3736L8.6701 13.5728L8.17131 13.0482C7.90041 12.7601 7.47042 12.3172 7.22103 12.0592L6.76524 11.5991H6.54164C6.36104 11.5991 6.29655 11.6206 6.18905 11.7152C6.04715 11.8442 5.98265 12.0936 6.03425 12.3C6.05575 12.3946 7.51772 13.9812 8.18851 14.6391C8.4035 14.8498 8.4293 14.867 8.6271 14.867C8.7389 14.8627 8.87649 14.8412 8.92379 14.8111C9.02269 14.7552 15.7693 8.13336 15.9112 7.95276C15.967 7.87967 15.9928 7.78077 15.9928 7.63887C15.9928 7.34218 15.8424 7.17448 15.5199 7.10568C15.4855 7.09708 15.3952 7.10998 15.3178 7.13148Z" fill="#565CFE"/>
</svg>
